<?xml version="1.0" encoding="UTF-8"?><svg id="Calque_1" xmlns="http://www.w3.org/2000/svg" viewBox="0 0 612 590.28"><path d="m237.7,336.03c6.31,23.54,24.17,42.78,46.88,50.87,15.14,4.73,37.63,13.03,49.93-.74,3.36-4.73,3.57-11.25,2.52-17.24,2,5.68,2.42,12.51-.74,18.39-12.3,16.5-36.89,8.62-53.29,3.68-23.33-8.62-42.57-29.96-45.3-54.97h0Z" style="fill:#2a3179;"/><path d="m317.9,357.79c2.84,6.2,3.15,15.66-4.52,18.71-7.25,2.73-14.4.74-20.81-1.26-12.4-4.73-25.23-12.4-31.22-24.7,8.51,9.99,20.6,16.08,32.69,20.6,13.24,4.83,27.01,5.36,23.86-13.35h0Z" style="fill:#2a3179;"/><g><path d="m143.74,99.85c-1.05,0-1.89-.74-2.1-1.68-.21-1.16.53-2.31,1.68-2.63,1.47-.32,2.94-.63,4.31-.95,1.16-.21,2.31.53,2.63,1.79.21,1.16-.53,2.31-1.79,2.63-1.47.32-2.84.53-4.2.84h-.53Z" style="fill:#43a2db;"/><path d="m256.41,106.89c-.21,0-.42,0-.63-.11-2.94-.84-5.89-1.58-8.83-2.31-1.16-.32-1.89-1.47-1.58-2.63.32-1.16,1.47-1.89,2.63-1.58,2.94.74,5.89,1.47,8.93,2.31,1.16.32,1.89,1.58,1.58,2.73-.32.95-1.16,1.58-2.1,1.58Zm-26.7-6.2h-.42c-3.05-.53-5.99-1.05-8.93-1.58-1.16-.21-2-1.37-1.79-2.52.21-1.16,1.37-2,2.52-1.79,3.05.42,5.99.95,9.04,1.58,1.16.21,2,1.37,1.79,2.52-.21,1.05-1.16,1.79-2.21,1.79Zm-27.12-3.78h-.21c-3.05-.32-6.1-.53-9.04-.63-1.26-.11-2.1-1.05-2.1-2.31.11-1.26,1.05-2.21,2.31-2.1,3.05.11,6.1.42,9.14.63,1.26.11,2.1,1.16,2,2.42,0,1.05-.95,2-2.1,2Zm-36.47-.42c-1.16,0-2.1-.84-2.21-2-.11-1.26.84-2.31,2-2.42,3.05-.21,6.1-.42,9.25-.53,1.16-.11,2.21.95,2.31,2.1,0,1.26-.95,2.21-2.1,2.31-3.05.11-6.1.32-9.04.53-.11,0-.21,0-.21,0Z" style="fill:#43a2db;"/><path d="m278.17,113.62c-.21,0-.42,0-.74-.11l-4.2-1.37c-1.16-.42-1.79-1.58-1.37-2.73.42-1.16,1.68-1.79,2.73-1.37l4.2,1.37c1.16.42,1.79,1.68,1.37,2.84-.21.74-1.16,1.37-2,1.37Z" style="fill:#43a2db;"/></g><g><path d="m60.39,187.72h-.32c-1.16-.21-2.1-1.26-1.89-2.52.21-1.47.42-2.94.63-4.41.21-1.16,1.37-2,2.52-1.79,1.16.21,2,1.37,1.79,2.52-.21,1.37-.42,2.84-.63,4.2-.11,1.26-1.05,2-2.1,2Z" style="fill:#43a2db;"/><path d="m128.5,376.71c-.63,0-1.37-.32-1.79-.84-1.79-2.31-3.47-4.73-5.15-7.04-.74-.95-.53-2.31.53-3.05.95-.74,2.31-.53,3.05.53,1.68,2.31,3.36,4.62,5.15,6.94.74.95.53,2.31-.42,3.05-.42.32-.84.42-1.37.42Z" style="fill:#43a2db;"/><path d="m113.36,355.47c-.74,0-1.37-.32-1.79-.95-1.68-2.42-3.26-4.83-4.83-7.25-.63-1.05-.32-2.42.63-3.05,1.05-.63,2.42-.42,3.05.63,1.58,2.42,3.15,4.83,4.73,7.25.63,1.05.42,2.42-.63,3.05-.32.21-.74.32-1.16.32Z" style="fill:#43a2db;"/><path d="m88.56,313.22c-.84,0-1.58-.42-2-1.26-1.37-2.63-2.63-5.26-3.89-7.88-.53-1.05,0-2.42,1.05-2.94,1.05-.53,2.42-.11,2.94,1.05,1.26,2.63,2.52,5.15,3.78,7.78.53,1.05.11,2.42-.95,2.94-.32.21-.63.32-.95.32Z" style="fill:#43a2db;"/><path d="m77.73,289.47c-.84,0-1.68-.53-2-1.37-1.16-2.73-2.21-5.47-3.26-8.2-.42-1.16.11-2.42,1.26-2.84,1.16-.42,2.42.11,2.84,1.26,1.05,2.63,2.1,5.36,3.15,7.99.42,1.16-.11,2.42-1.16,2.84-.32.32-.63.32-.84.32Z" style="fill:#43a2db;"/><path d="m68.9,264.98c-.95,0-1.79-.63-2.1-1.58-.84-2.84-1.68-5.68-2.42-8.41-.32-1.16.42-2.42,1.58-2.73s2.42.42,2.73,1.58c.74,2.73,1.58,5.47,2.42,8.3.32,1.16-.32,2.42-1.47,2.73-.32.11-.53.11-.74.11Z" style="fill:#43a2db;"/><path d="m62.49,239.65c-1.05,0-2-.74-2.21-1.79-.53-2.94-1.05-5.78-1.47-8.72-.21-1.16.63-2.31,1.89-2.52,1.16-.21,2.31.63,2.52,1.89.42,2.84.84,5.68,1.47,8.51.21,1.16-.53,2.31-1.79,2.63-.11,0-.32,0-.42,0Z" style="fill:#43a2db;"/><path d="m59.34,213.79c-1.16,0-2.1-.95-2.21-2.1-.11-2.63-.21-5.26-.21-7.78v-1.05c0-1.16.95-2.21,2.21-2.21h0c1.26,0,2.21,1.05,2.21,2.21v.95c0,2.52.11,5.05.21,7.57.11,1.26-.84,2.21-2.1,2.31q0,.11-.11.11Z" style="fill:#43a2db;"/><path d="m142.06,393.94c-.63,0-1.26-.32-1.68-.84l-2.84-3.47c-.74-.95-.63-2.31.32-3.05.95-.74,2.31-.63,3.05.32l2.73,3.36c.74.95.63,2.31-.32,3.05-.21.42-.74.63-1.26.63Z" style="fill:#43a2db;"/></g><path d="m448.23,212.11c-.53,0-1.05-.21-1.37-.53l-3.36-2.84c-.95-.74-1.05-2.21-.32-3.05.74-.95,2.21-1.05,3.05-.32l3.36,2.84c.95.74,1.05,2.21.32,3.05-.42.53-1.05.84-1.68.84Z" style="fill:#43a2db;"/><path d="m483.34,590.28h0c-2.94,0-5.89-.21-8.83-.32-1.26-.11-2.1-1.16-2.1-2.31.11-1.16,1.05-2.21,2.31-2.1,2.94.21,5.78.32,8.62.32,1.26,0,2.21,1.05,2.21,2.21,0,1.26-.95,2.21-2.21,2.21Z" style="fill:#43a2db;"/><path d="m500.68,589.86c-1.16,0-2.1-.84-2.21-2.1-.11-1.26.84-2.31,2-2.31,2.94-.21,5.78-.42,8.51-.74,1.16-.21,2.31.74,2.42,1.89.11,1.16-.74,2.31-1.89,2.42-2.84.32-5.78.63-8.72.84t-.11,0Z" style="fill:#43a2db;"/><path d="m457.38,588.29h-.32c-2.84-.32-5.78-.74-8.62-1.26-1.16-.21-2-1.37-1.79-2.52.21-1.16,1.37-2,2.52-1.79,2.84.42,5.68.84,8.51,1.16,1.16.11,2.1,1.26,1.89,2.42-.11,1.26-1.05,2-2.21,2Z" style="fill:#43a2db;"/><path d="m526.54,586.18c-1.05,0-1.89-.74-2.1-1.68-.32-1.16.42-2.31,1.68-2.63,2.84-.63,5.57-1.37,8.3-2.21,1.16-.32,2.42.32,2.73,1.47.32,1.16-.32,2.42-1.47,2.73-2.84.84-5.68,1.58-8.51,2.21-.32,0-.53.11-.63.11Z" style="fill:#43a2db;"/><path d="m431.73,583.98h-.42c-2.84-.63-5.68-1.26-8.51-2-1.16-.32-1.89-1.47-1.58-2.63s1.47-1.89,2.63-1.58c2.84.74,5.68,1.37,8.41,1.89,1.16.21,2,1.47,1.68,2.63-.32.95-1.16,1.68-2.21,1.68Z" style="fill:#43a2db;"/><path d="m551.24,577.88c-.84,0-1.68-.53-2-1.26-.53-1.16,0-2.42,1.05-2.94,2.63-1.16,5.15-2.42,7.57-3.78,1.05-.63,2.42-.21,2.94.84.63,1.05.21,2.42-.84,2.94-2.52,1.37-5.15,2.73-7.88,3.99-.32.21-.63.21-.84.21Z" style="fill:#43a2db;"/><path d="m406.51,577.46c-.21,0-.42,0-.63-.11-2.73-.84-5.57-1.68-8.3-2.52-1.16-.32-1.79-1.58-1.47-2.73.42-1.16,1.58-1.79,2.73-1.47,2.73.84,5.57,1.68,8.3,2.52,1.16.32,1.79,1.58,1.47,2.73-.32.95-1.16,1.58-2.1,1.58Z" style="fill:#43a2db;"/><path d="m381.7,569.26c-.21,0-.53,0-.74-.11-2.73-.95-5.47-2-8.2-3.05-1.16-.42-1.68-1.68-1.26-2.84.42-1.16,1.68-1.68,2.84-1.26,2.73,1.05,5.36,2.1,8.09,3.05,1.16.42,1.68,1.68,1.26,2.84-.21.84-1.05,1.37-2,1.37Z" style="fill:#43a2db;"/><path d="m357.32,559.59c-.21,0-.53-.11-.74-.21-2.63-1.05-5.36-2.21-7.99-3.36-1.16-.53-1.58-1.79-1.16-2.94.53-1.16,1.79-1.58,2.94-1.16,2.63,1.16,5.36,2.31,7.99,3.36,1.16.42,1.68,1.79,1.16,2.84-.53.95-1.37,1.47-2.21,1.47Z" style="fill:#43a2db;"/><path d="m573.31,564.32c-.63,0-1.26-.32-1.68-.84-.74-.95-.63-2.31.32-3.05,2.21-1.79,4.31-3.68,6.31-5.57.84-.84,2.31-.84,3.15,0,.84.84.84,2.31,0,3.15-2.1,2.1-4.41,3.99-6.62,5.89-.42.32-.95.42-1.47.42Z" style="fill:#43a2db;"/><path d="m591.18,545.4c-.42,0-.84-.11-1.26-.42-.95-.74-1.26-2.1-.53-3.05,1.68-2.31,3.15-4.73,4.52-7.15.63-1.05,1.89-1.37,3.05-.84,1.05.63,1.37,2,.84,3.05-1.47,2.52-3.05,5.05-4.83,7.46-.42.63-1.16.95-1.79.95Z" style="fill:#43a2db;"/><path d="m603.16,522.38c-.21,0-.53,0-.74-.11-1.16-.42-1.68-1.68-1.37-2.84.95-2.63,1.79-5.36,2.52-8.09.32-1.16,1.58-1.89,2.73-1.58s1.89,1.58,1.58,2.73c-.74,2.84-1.68,5.68-2.63,8.41-.42.84-1.26,1.47-2.1,1.47Z" style="fill:#43a2db;"/><path d="m609.05,497.05h-.32c-1.16-.11-2.1-1.26-1.89-2.42.32-2.84.63-5.68.74-8.51.11-1.26,1.16-2.1,2.31-2.1,1.26.11,2.1,1.16,2.1,2.31-.21,2.94-.42,5.89-.74,8.83-.21,1.05-1.16,1.89-2.21,1.89Z" style="fill:#43a2db;"/><path d="m609.78,470.99c-1.16,0-2.1-.95-2.21-2.1-.21-2.84-.42-5.68-.74-8.51-.11-1.16.74-2.31,2-2.42,1.16-.21,2.31.74,2.42,2,.32,2.94.53,5.89.74,8.72.11,1.26-.84,2.21-2.1,2.31h-.11Z" style="fill:#43a2db;"/><path d="m606.42,445.24c-1.05,0-2-.74-2.1-1.79-.53-2.73-1.16-5.57-1.79-8.41-.32-1.16.42-2.42,1.68-2.63,1.16-.32,2.42.42,2.63,1.68.74,2.84,1.26,5.78,1.89,8.62.21,1.16-.53,2.31-1.68,2.63-.32-.11-.42-.11-.63-.11Z" style="fill:#43a2db;"/><path d="m600.01,420.01c-.95,0-1.79-.63-2.1-1.58-.84-2.73-1.79-5.47-2.73-8.2-.42-1.16.21-2.42,1.37-2.84,1.16-.42,2.42.21,2.84,1.37.95,2.73,1.89,5.57,2.73,8.3.32,1.16-.32,2.42-1.47,2.73-.21.11-.42.21-.63.21Z" style="fill:#43a2db;"/><path d="m591.08,395.52c-.84,0-1.68-.53-2-1.37-1.05-2.63-2.21-5.26-3.36-7.88-.53-1.16,0-2.42,1.16-2.94,1.16-.53,2.42,0,2.94,1.16,1.16,2.73,2.31,5.36,3.47,7.99.42,1.16-.11,2.42-1.16,2.84-.53.11-.84.21-1.05.21Z" style="fill:#43a2db;"/><path d="m580.14,371.87c-.84,0-1.58-.42-2-1.16-1.26-2.52-2.63-5.15-3.99-7.67-.53-1.05-.21-2.42.95-2.94,1.05-.53,2.42-.21,2.94.95,1.37,2.63,2.73,5.15,4.1,7.78.53,1.05.11,2.42-.95,2.94-.42,0-.74.11-1.05.11Z" style="fill:#43a2db;"/><path d="m567.53,349.06c-.74,0-1.47-.42-1.89-1.05-1.47-2.42-2.94-4.94-4.52-7.36-.63-1.05-.32-2.42.74-3.05,1.05-.63,2.42-.32,3.05.74,1.58,2.52,3.05,4.94,4.52,7.46.63,1.05.32,2.42-.74,3.05-.42.11-.74.21-1.16.21Z" style="fill:#43a2db;"/><path d="m553.55,326.99c-.74,0-1.37-.32-1.79-.95-1.58-2.42-3.26-4.73-4.94-7.15-.74-.95-.42-2.42.53-3.05,1.05-.74,2.31-.42,3.05.53,1.68,2.42,3.36,4.83,4.94,7.15.74,1.05.42,2.42-.63,3.05-.32.32-.74.42-1.16.42Z" style="fill:#43a2db;"/><path d="m538.31,305.86c-.63,0-1.37-.32-1.79-.84-1.68-2.31-3.47-4.52-5.26-6.83-.74-.95-.63-2.31.42-3.05.95-.74,2.31-.63,3.05.42,1.79,2.31,3.57,4.62,5.36,6.94.74.95.53,2.31-.42,3.05-.42.11-.84.32-1.37.32Z" style="fill:#43a2db;"/><path d="m522.13,285.47c-.63,0-1.26-.32-1.68-.74-1.89-2.21-3.68-4.41-5.57-6.62-.84-.95-.74-2.31.21-3.15.95-.84,2.31-.74,3.15.21,1.89,2.21,3.78,4.41,5.68,6.62.74.95.63,2.31-.32,3.15-.53.32-.95.53-1.47.53Z" style="fill:#43a2db;"/><path d="m504.89,265.92c-.63,0-1.16-.21-1.58-.74-1.89-2.1-3.89-4.2-5.89-6.31-.84-.84-.84-2.31.11-3.15.84-.84,2.31-.84,3.15.11,2,2.1,3.99,4.2,5.99,6.41.84.95.74,2.31-.11,3.15-.63.32-1.16.53-1.68.53Z" style="fill:#43a2db;"/><path d="m486.81,247.11c-.53,0-1.16-.21-1.58-.63-2-2-4.1-3.99-6.2-6.1-.84-.84-.95-2.21-.11-3.15.84-.84,2.21-.95,3.15-.11,2.1,2,4.2,4.1,6.2,6.1.84.84.84,2.21,0,3.15-.32.53-.95.74-1.47.74Z" style="fill:#43a2db;"/><path d="m467.89,229.24c-.53,0-1.05-.21-1.47-.53-2.1-1.89-4.31-3.89-6.41-5.78-.95-.84-.95-2.21-.21-3.15.84-.95,2.21-1.05,3.15-.21,2.21,1.89,4.31,3.89,6.52,5.78.95.84.95,2.21.11,3.15-.53.42-1.05.74-1.68.74Z" style="fill:#43a2db;"/><g><path d="m103.69,157.87c-4.52-5.26-10.09-7.78-13.56-5.89l-21.55-24.81c-1.16-1.37-3.36-1.58-4.73-.32l-1.05.84-2-2.42c-2.84-3.26-7.67-3.57-10.93-.84-3.26,2.84-3.57,7.67-.84,10.93l2,2.42-1.05.95c-1.37,1.26-1.58,3.36-.32,4.73l21.65,24.91h0c-2.63,3.05-1.05,9.14,3.57,14.4l28.8-24.91h0Z" style="fill:#2a3179;"/><path d="m135.75,102.48l-46.98,40.47-14.72-17.13,46.98-40.47c.74-.63,1.79-.53,2.42.21l12.51,14.61c.53.63.53,1.68-.21,2.31Z" style="fill:#43a2db;"/><path d="m15.3,206.12l47.19-40.68-14.72-17.13L.58,189.09c-.74.63-.74,1.68-.21,2.42l12.51,14.5c.63.63,1.68.74,2.42.11Z" style="fill:#43a2db;"/><path d="m103.48,181.42c-.84-.95-2-1.26-3.15-1.05l-7.04-8.62-2.52,2.21,6.94,8.51c-.42,1.16-.32,2.52.53,3.47,1.26,1.47,3.47,1.58,4.83.32,1.37-1.26,1.68-3.36.42-4.83Z" style="fill:#2a3179;"/><path d="m108.63,192.66c-2.42,2.1-5.47,3.05-8.62,2.84-.95-.11-1.58-.84-1.58-1.79.11-.95.84-1.58,1.79-1.58,2.31.21,4.41-.53,6.2-2,1.68-1.47,2.73-3.57,2.94-5.89.11-.95.84-1.58,1.79-1.58.95.11,1.58.84,1.58,1.79-.32,3.26-1.79,6.2-4.1,8.2Z" style="fill:#43a2db;"/><path d="m115.25,200.44c-3.78,3.26-8.51,4.83-13.45,4.41-.95-.11-1.58-.84-1.58-1.79.11-.95.84-1.58,1.79-1.58,3.99.32,7.99-.95,11.04-3.68,3.05-2.63,4.94-6.31,5.26-10.41.11-.95.84-1.58,1.79-1.58.95.11,1.58.84,1.58,1.79-.42,5.05-2.63,9.56-6.41,12.82Z" style="fill:#43a2db;"/><path d="m121.88,208.11c-5.05,4.41-11.56,6.52-18.29,5.99-.95-.11-1.58-.84-1.58-1.79.11-.95.84-1.58,1.79-1.58,5.78.42,11.46-1.47,15.77-5.26,4.41-3.78,7.04-9.04,7.46-14.93.11-.95.84-1.58,1.79-1.58.95.11,1.58.84,1.58,1.79-.32,6.94-3.36,13.03-8.51,17.34Z" style="fill:#43a2db;"/></g><path d="m334.09,559.59h-40.89l-9.99-22.39c-3.68-8.2-6.94-14.19-9.88-17.97-2.94-3.78-5.78-6.2-8.51-7.25s-6.31-1.58-10.72-1.58h-4.31v49.3h-38.15v-126.44h64.85c10.41,0,19.02,2.1,25.75,6.41,6.73,4.2,11.46,9.46,14.5,15.45,2.94,6.1,4.41,11.88,4.41,17.34,0,6.41-1.26,11.77-3.68,16.19-2.42,4.41-5.05,7.57-7.78,9.56-2.73,2-5.78,3.89-9.25,5.78,4.1,2.42,7.46,5.15,10.09,8.41,2.63,3.26,6.2,9.88,10.83,19.76l12.72,27.43Zm-51.82-86.4c0-5.89-1.89-9.88-5.78-12.19-3.78-2.31-10.09-3.47-18.71-3.47h-7.99v30.48h8.2c9.25,0,15.66-1.05,19.13-3.05,3.47-2.1,5.15-5.99,5.15-11.77Z" style="fill:#2a3179;"/><g><path d="m155.72,561.06c-8.3,0-15.03-6.94-15.03-15.24,0-4.41,1.68-8.09,4.31-10.72l3.26,3.26c-2,1.89-3.26,4.41-3.26,7.46,0,5.99,4.83,10.41,10.83,10.41s10.83-4.41,10.83-10.41c0-4.41-2.73-8.09-6.62-9.56v9.56h-4.2v-15.14c8.2,0,15.03,6.94,15.03,15.14,0,8.93-6.1,15.24-15.14,15.24Z" style="fill:#43a2db;"/><path d="m141.11,526.38v-4.73h25.12v-12.61h4.2v17.34h-29.32Z" style="fill:#43a2db;"/><path d="m141.11,505.15v-4.73h29.32v4.73h-29.32Z" style="fill:#43a2db;"/><path d="m141.11,494.22v-3.26l11.67-11.67-11.67-11.77v-3.15h29.32v4.62h-21.55l9.88,10.2-9.88,10.2h21.55v4.62h-29.32v.21Z" style="fill:#43a2db;"/><path d="m166.23,458.79v-16.71c0-2.52-1.68-4.2-4.2-4.2s-4.2,1.68-4.2,4.2v8.83c0,5.05-3.57,8.41-8.41,8.41-4.41,0-8.41-3.36-8.41-8.41v-15.24h4.2v14.72c0,2.52,1.68,4.2,4.2,4.2s4.2-1.68,4.2-4.2v-8.83c0-5.05,3.57-8.41,8.41-8.41,4.31,0,8.41,3.36,8.41,8.41v17.24h-4.2Z" style="fill:#43a2db;"/></g><path d="m204.81,459.95c-.53,0-1.05-.21-1.47-.53-2.21-2-2.42-2.1-4.62-4.1-.95-.84-.95-2.21-.11-3.15.84-.95,2.21-.95,3.15-.11,2.1,2,2.42,2.1,4.62,3.99.95.84,1.05,2.21.21,3.15-.53.53-1.16.74-1.79.74Z" style="fill:#43a2db;"/><path d="m187.36,443.97c-.53,0-1.05-.21-1.58-.63-2.1-2-4.2-4.1-6.31-6.2-.84-.84-.84-2.21,0-3.15.84-.84,2.21-.84,3.15,0,2.1,2,4.2,4.1,6.31,6.1.84.84.95,2.21.11,3.15-.53.53-1.05.74-1.68.74Z" style="fill:#43a2db;"/><path d="m168.75,425.27c-.63,0-1.16-.21-1.58-.74-2-2.1-3.99-4.31-5.99-6.41-.84-.84-.74-2.31.11-3.15.95-.84,2.31-.74,3.15.11,2,2.1,3.99,4.31,5.99,6.41.84.84.84,2.31-.11,3.15-.42.42-.95.63-1.58.63Z" style="fill:#43a2db;"/><path d="m473.36,550.45c-2.73,1.05-5.05,1.89-7.04,2.52-1.89.63-3.78,1.26-5.57,1.79-1.79.53-4.41,1.26-7.78,2.1-5.78,1.37-11.56,2.31-17.24,3.05-5.78.74-11.77,1.05-18.18,1.05-12.82,0-24.7-2.31-35.53-7.04s-19.55-11.98-26.07-21.76c-6.52-9.88-9.77-21.97-9.77-36.26,0-9.25,1.68-18.29,5.05-27.22,3.36-8.93,8.51-16.08,15.45-21.34,5.68-4.41,11.46-7.78,17.34-10.2,5.89-2.31,11.56-3.89,17.13-4.73,5.57-.84,11.77-1.16,18.5-1.16,11.14,0,20.29.84,27.54,2.52,7.25,1.68,15.14,3.89,23.75,6.62v29.85c-5.68-3.36-11.77-6.1-18.18-8.41-6.41-2.31-14.29-3.36-23.86-3.36-11.04,0-19.76,2.1-26.38,6.2-6.62,4.2-11.14,9.14-13.77,14.93-2.63,5.78-3.89,11.35-3.89,16.82,0,6.41,1.47,12.3,4.41,17.66,2.94,5.36,7.46,9.67,13.45,12.93,5.99,3.26,13.24,4.83,21.76,4.83,4.83,0,9.99-.63,15.45-1.89v-14.82h-17.13v-25.33h50.45v60.65h.11Z" style="fill:#2a3179;"/><path d="m544.93,559.38h-38.15v-126.02h38.15v126.02Z" style="fill:#2a3179;"/><path d="m544.93,426.11h0L329.67,0l-75.57,193.29,1.05,1.79c.21.32,19.44,34.05,45.2,75.36,4.94,7.88,3.05,17.24,1.05,27.22-2.84,14.4-6.1,30.69,10.72,44.67,7.36,6.1,15.35,11.14,23.12,15.98,22.07,13.77,33.21,21.76,23.12,38.36-3.78,6.2-10.62,10.3-20.39,12.19-27.64,5.15-68.53-8.72-89.45-25.02-19.23-15.03-31.01-37.1-26.7-50.45,3.78-11.56,18.92-14.5,30.9-14.93,14.5-.53,24.28-5.36,28.9-14.5,11.56-22.6-15.03-62.85-15.98-64.33l-63.59-115.3L54.92,408.24h115.51v-8.83h-101.01L202.39,142.95l55.81,101.22c6.94,10.41,23.33,40.78,15.66,55.71-3.05,5.99-10.3,9.25-21.34,9.67-26.91.95-36.05,11.88-38.99,21.02-6.31,19.44,10.2,44.88,29.64,60.12,22.39,17.45,66.53,32.27,96.49,26.7,12.4-2.31,21.23-7.78,26.28-16.29,14.93-24.91-5.89-37.84-26.07-50.45-7.57-4.73-15.35-9.56-22.18-15.24-12.82-10.72-10.51-22.49-7.78-36.26,2.21-11.14,4.52-22.7-2.21-33.53-22.28-35.63-39.63-65.69-43.93-73.26L330.72,21.34l199.7,395.84h-23.54v8.83h38.05v.11Z" style="fill:#2a3179;"/></svg>