<?xml version="1.0" encoding="UTF-8"?><svg id="Calque_1" xmlns="http://www.w3.org/2000/svg" viewBox="0 0 582.33 648.86"><path d="m226.15,319.66c5.98,22.39,22.97,40.7,44.63,48.43,14.42,4.49,35.82,12.38,47.5-.69,3.2-4.52,3.45-10.74,2.4-16.39,1.91,5.44,2.3,11.9-.7,17.46-11.67,15.74-35.15,8.16-50.68,3.52-22.23-8.15-40.51-28.52-43.15-52.33h0Z" style="fill:#2d2e83;"/><path d="m302.54,340.41c2.73,5.93,3.02,14.95-4.35,17.84-6.86,2.56-13.67.72-19.78-1.22-11.82-4.52-24-11.84-29.68-23.54,8.13,9.47,19.63,15.28,31.06,19.59,12.61,4.58,25.73,5.09,22.74-12.67h0Z" style="fill:#2d2e83;"/><g><path d="m136.79,94.98c-.96,0-1.83-.67-2.05-1.64-.25-1.13.46-2.25,1.59-2.5,1.37-.3,2.75-.59,4.15-.85,1.14-.2,2.23.53,2.45,1.66.22,1.14-.53,2.23-1.66,2.45-1.35.26-2.7.54-4.02.83-.16.03-.31.05-.45.05Z" style="fill:#36a9e1;"/><path d="m243.96,101.69c-.18,0-.37-.02-.55-.07-2.81-.77-5.59-1.5-8.36-2.18-1.12-.28-1.81-1.42-1.53-2.54.28-1.12,1.41-1.8,2.54-1.53,2.8.7,5.62,1.43,8.46,2.21,1.12.31,1.78,1.46,1.47,2.57-.25.93-1.1,1.54-2.02,1.54Zm-25.38-5.91c-.13,0-.26-.01-.39-.04-2.86-.54-5.69-1.03-8.5-1.47-1.14-.18-1.92-1.25-1.74-2.4s1.28-1.9,2.4-1.74c2.85.45,5.73.95,8.62,1.5,1.14.21,1.89,1.31,1.67,2.45-.19,1.01-1.07,1.71-2.05,1.71Zm-25.81-3.62c-.06,0-.13,0-.19,0-2.9-.25-5.76-.46-8.59-.61-1.16-.06-2.05-1.04-1.98-2.2s.96-2.07,2.2-1.98c2.89.15,5.8.35,8.75.61,1.15.1,2,1.12,1.9,2.27-.09,1.09-1.01,1.91-2.08,1.91Zm-34.72-.31c-1.08,0-2-.83-2.08-1.93-.09-1.15.76-2.16,1.92-2.25,2.88-.23,5.81-.4,8.78-.49,1.06-.09,2.12.88,2.16,2.03s-.87,2.12-2.03,2.16c-2.9.09-5.76.25-8.57.48-.06,0-.11,0-.17,0Z" style="fill:#36a9e1;"/><path d="m264.66,108.06c-.22,0-.45-.04-.67-.11l-3.95-1.32c-1.1-.36-1.7-1.54-1.34-2.64.36-1.1,1.55-1.7,2.64-1.34l4,1.33c1.09.37,1.68,1.56,1.31,2.66-.3.87-1.11,1.42-1.98,1.42Z" style="fill:#36a9e1;"/></g><g><path d="m57.46,178.64c-.09,0-.19,0-.28-.02-1.15-.16-1.96-1.21-1.8-2.35.19-1.42.4-2.82.63-4.2.19-1.15,1.29-1.91,2.42-1.71,1.14.2,1.91,1.28,1.71,2.42-.23,1.34-.43,2.69-.61,4.05-.14,1.06-1.04,1.82-2.07,1.82Z" style="fill:#36a9e1;"/><path d="m122.31,358.4c-.63,0-1.26-.29-1.67-.83-1.68-2.23-3.33-4.45-4.95-6.68-.68-.94-.47-2.25.46-2.92.93-.67,2.24-.48,2.92.46,1.6,2.2,3.24,4.41,4.9,6.62.7.92.51,2.23-.41,2.93-.38.28-.82.42-1.26.42Z" style="fill:#36a9e1;"/><path d="m107.89,338.19c-.67,0-1.33-.32-1.74-.92-1.56-2.32-3.08-4.63-4.57-6.95-.63-.97-.35-2.27.63-2.89.95-.64,2.26-.35,2.89.63,1.48,2.29,2.99,4.58,4.53,6.87.65.96.39,2.26-.57,2.91-.36.24-.76.36-1.17.36Z" style="fill:#36a9e1;"/><path d="m84.29,298.01c-.76,0-1.5-.42-1.87-1.15-1.26-2.5-2.48-4.99-3.66-7.48-.49-1.04-.05-2.29,1-2.79,1.03-.49,2.29-.05,2.79,1,1.16,2.45,2.36,4.92,3.61,7.39.52,1.03.11,2.29-.93,2.81-.3.16-.62.22-.94.22Z" style="fill:#36a9e1;"/><path d="m73.96,275.44c-.82,0-1.6-.49-1.94-1.3-1.07-2.6-2.08-5.18-3.06-7.76-.41-1.08.14-2.29,1.22-2.7,1.08-.4,2.29.14,2.7,1.22.96,2.54,1.96,5.08,3.01,7.65.44,1.07-.07,2.29-1.15,2.73-.26.11-.53.16-.79.16Z" style="fill:#36a9e1;"/><path d="m65.56,252.09c-.9,0-1.72-.58-2-1.48-.83-2.69-1.61-5.36-2.33-8.02-.3-1.12.36-2.27,1.47-2.57,1.14-.31,2.27.36,2.57,1.47.71,2.61,1.47,5.24,2.29,7.88.34,1.1-.28,2.28-1.38,2.62-.2.07-.41.09-.62.09Z" style="fill:#36a9e1;"/><path d="m59.51,228.02c-.98,0-1.86-.7-2.05-1.7-.53-2.78-.99-5.53-1.39-8.25-.16-1.15.63-2.21,1.77-2.38,1.09-.15,2.21.62,2.38,1.77.39,2.67.84,5.36,1.36,8.07.22,1.14-.53,2.23-1.66,2.45-.13.02-.27.04-.4.04Z" style="fill:#36a9e1;"/><path d="m56.52,203.39c-1.11,0-2.04-.87-2.09-1.99-.12-2.5-.18-4.96-.18-7.4v-1c.02-1.15.95-2.07,2.1-2.07h.02c1.16.02,2.09.97,2.07,2.12v.95c0,2.37.06,4.77.17,7.19.06,1.16-.83,2.14-1.99,2.19-.04,0-.07,0-.1,0Z" style="fill:#36a9e1;"/><path d="m135.22,374.79c-.6,0-1.2-.26-1.62-.76l-2.66-3.26c-.73-.9-.59-2.22.31-2.95.9-.73,2.22-.59,2.95.31l2.64,3.23c.74.89.61,2.21-.28,2.95-.39.32-.86.48-1.33.48Z" style="fill:#36a9e1;"/></g><g><path d="m426.47,201.77c-.47,0-.95-.16-1.35-.49l-3.21-2.66c-.9-.74-1.02-2.06-.29-2.95.74-.89,2.06-1.02,2.95-.29l3.24,2.69c.89.74,1,2.06.26,2.95-.41.49-1.01.75-1.6.75Z" style="fill:#36a9e1;"/><path d="m459.93,561.58h-.04c-2.75-.05-5.53-.15-8.34-.31-1.15-.07-2.04-1.05-1.97-2.21.07-1.15,1.04-2.09,2.21-1.97,2.75.15,5.48.25,8.18.3,1.16.02,2.08.98,2.06,2.13-.02,1.15-.95,2.06-2.09,2.06Zm16.52-.39c-1.1,0-2.02-.85-2.09-1.96-.08-1.15.79-2.15,1.95-2.23,2.75-.18,5.46-.43,8.14-.74,1.06-.15,2.19.69,2.32,1.84.13,1.15-.7,2.18-1.84,2.32-2.73.31-5.51.56-8.33.76-.05,0-.1,0-.14,0Zm-41.23-1.43c-.09,0-.18,0-.27-.02-2.73-.34-5.48-.73-8.25-1.16-1.14-.18-1.93-1.25-1.75-2.39.18-1.15,1.26-1.92,2.39-1.75,2.73.43,5.44.81,8.12,1.15,1.15.14,1.96,1.19,1.82,2.34-.13,1.06-1.03,1.83-2.07,1.83Zm65.76-2.09c-.96,0-1.82-.66-2.04-1.63-.26-1.12.45-2.25,1.57-2.51,2.67-.61,5.3-1.3,7.87-2.05,1.13-.33,2.27.31,2.6,1.42.33,1.11-.31,2.27-1.42,2.6-2.65.78-5.36,1.49-8.12,2.12-.16.04-.31.05-.47.05Zm-90.19-2.09c-.14,0-.29-.02-.44-.04-2.69-.58-5.4-1.19-8.12-1.86-1.12-.27-1.81-1.41-1.54-2.53.27-1.12,1.42-1.82,2.53-1.54,2.68.65,5.35,1.26,8,1.83,1.13.25,1.85,1.36,1.61,2.49-.21.99-1.08,1.66-2.05,1.66Zm113.67-5.74c-.79,0-1.55-.45-1.91-1.23-.48-1.05-.02-2.29,1.04-2.77,2.47-1.12,4.88-2.34,7.23-3.64,1-.55,2.28-.19,2.85.82.56,1.01.2,2.29-.82,2.85-2.43,1.35-4.95,2.61-7.52,3.79-.28.13-.58.19-.87.19Zm-137.69-.4c-.2,0-.39-.03-.59-.09-2.63-.78-5.28-1.59-7.94-2.43-1.1-.35-1.71-1.53-1.36-2.63.35-1.1,1.51-1.72,2.63-1.36,2.63.83,5.25,1.64,7.86,2.41,1.11.33,1.74,1.49,1.42,2.6-.27.91-1.1,1.5-2.01,1.5Zm-23.54-7.79c-.24,0-.48-.04-.72-.13-2.59-.94-5.17-1.93-7.77-2.94-1.08-.42-1.61-1.64-1.19-2.71.42-1.08,1.64-1.61,2.71-1.19,2.57,1.01,5.13,1.97,7.69,2.91,1.09.4,1.64,1.6,1.25,2.69-.31.85-1.11,1.37-1.97,1.37Zm182.31-4.73c-.61,0-1.22-.27-1.63-.78-.72-.9-.58-2.22.32-2.95,2.08-1.67,4.11-3.47,6.04-5.34.83-.81,2.16-.79,2.96.04.81.83.79,2.16-.04,2.96-2.02,1.96-4.15,3.85-6.33,5.6-.39.31-.85.46-1.31.46Zm16.93-18c-.42,0-.84-.12-1.21-.38-.94-.67-1.17-1.97-.5-2.92,1.55-2.2,3.01-4.49,4.34-6.8.58-1,1.85-1.34,2.86-.77,1,.58,1.35,1.86.77,2.86-1.39,2.42-2.93,4.81-4.56,7.12-.4.58-1.06.89-1.71.89Zm11.4-21.94c-.24,0-.48-.04-.72-.13-1.09-.39-1.65-1.6-1.25-2.68.91-2.52,1.73-5.08,2.44-7.71.31-1.11,1.46-1.77,2.57-1.47,1.12.31,1.77,1.46,1.47,2.57-.75,2.74-1.6,5.42-2.55,8.04-.31.85-1.11,1.38-1.97,1.38Zm5.65-24.09c-.09,0-.17,0-.26-.02-1.15-.14-1.96-1.18-1.82-2.33.32-2.65.56-5.35.72-8.09.07-1.15,1.06-1.98,2.21-1.97,1.16.07,2.04,1.06,1.97,2.21-.16,2.83-.4,5.62-.74,8.36-.13,1.06-1.03,1.84-2.07,1.84Zm.7-24.74c-1.1,0-2.03-.86-2.09-1.98-.16-2.69-.38-5.4-.67-8.14-.12-1.15.71-2.18,1.86-2.3,1.12-.16,2.18.71,2.3,1.86.3,2.81.53,5.59.68,8.34.07,1.15-.81,2.14-1.97,2.21-.04,0-.08,0-.12,0Zm-3.17-24.57c-.98,0-1.85-.69-2.05-1.69-.53-2.65-1.11-5.31-1.75-8-.27-1.12.43-2.25,1.55-2.52,1.13-.29,2.25.43,2.52,1.55.65,2.74,1.24,5.46,1.78,8.15.22,1.13-.51,2.24-1.64,2.46-.14.03-.27.04-.41.04Zm-6.16-24.01c-.89,0-1.72-.57-2-1.47-.81-2.59-1.67-5.17-2.58-7.78-.38-1.09.19-2.29,1.28-2.67,1.1-.4,2.29.19,2.67,1.28.92,2.65,1.8,5.28,2.62,7.91.35,1.1-.27,2.28-1.37,2.62-.21.07-.42.1-.63.1Zm-8.51-23.29c-.82,0-1.6-.49-1.93-1.29-1.04-2.5-2.12-5.01-3.25-7.53-.47-1.06,0-2.29,1.06-2.77,1.06-.48,2.29,0,2.77,1.06,1.14,2.55,2.24,5.1,3.3,7.64.44,1.07-.06,2.29-1.13,2.74-.26.11-.53.16-.8.16Zm-10.39-22.5c-.76,0-1.5-.42-1.87-1.15-1.23-2.43-2.5-4.86-3.8-7.29-.55-1.02-.16-2.29.85-2.83,1.01-.54,2.29-.17,2.83.85,1.32,2.46,2.61,4.92,3.85,7.37.52,1.03.11,2.29-.92,2.82-.31.15-.63.22-.95.22Zm-11.97-21.72c-.71,0-1.41-.37-1.8-1.03-1.39-2.34-2.81-4.68-4.27-7.03-.61-.98-.31-2.27.67-2.88.99-.6,2.27-.31,2.88.67,1.47,2.37,2.91,4.74,4.31,7.1.59.99.26,2.28-.73,2.87-.34.2-.7.29-1.07.29Zm-13.29-20.93c-.67,0-1.33-.32-1.73-.92-1.53-2.26-3.09-4.52-4.68-6.77-.66-.94-.44-2.25.51-2.92.95-.67,2.25-.44,2.92.51,1.6,2.28,3.18,4.56,4.72,6.84.65.96.4,2.26-.56,2.9-.36.25-.76.36-1.17.36Zm-14.45-20.15c-.63,0-1.26-.29-1.67-.83-1.65-2.17-3.33-4.34-5.03-6.52-.71-.91-.55-2.23.36-2.94.91-.7,2.22-.56,2.94.36,1.72,2.19,3.4,4.38,5.07,6.57.7.92.52,2.23-.4,2.93-.38.29-.82.43-1.26.43Zm-15.47-19.38c-.6,0-1.19-.25-1.6-.74-1.76-2.09-3.54-4.18-5.35-6.27-.76-.87-.66-2.2.21-2.95.87-.76,2.19-.67,2.95.21,1.82,2.09,3.61,4.2,5.39,6.31.74.89.63,2.2-.25,2.95-.39.33-.87.49-1.35.49Zm-16.39-18.61c-.56,0-1.13-.23-1.54-.67-1.85-2.01-3.73-4.01-5.62-6.01-.8-.84-.76-2.16.07-2.96.83-.79,2.16-.77,2.96.07,1.91,2.01,3.81,4.03,5.67,6.06.78.85.73,2.18-.12,2.96-.4.37-.91.55-1.42.55Zm-17.22-17.85c-.53,0-1.07-.2-1.48-.61-1.94-1.93-3.9-3.84-5.89-5.76-.83-.8-.86-2.13-.06-2.96.81-.83,2.14-.85,2.96-.06,2,1.93,3.98,3.86,5.94,5.8.82.82.83,2.14.01,2.97-.41.41-.95.62-1.49.62Zm-17.99-17.07c-.5,0-1.01-.18-1.41-.54-2.02-1.84-4.07-3.67-6.13-5.5-.87-.76-.95-2.09-.18-2.95.76-.88,2.09-.96,2.95-.18,2.08,1.84,4.14,3.69,6.17,5.53.86.78.92,2.1.14,2.96-.41.46-.98.69-1.55.69Z" style="fill:#36a9e1;"/><path d="m340.04,532.37c-.28,0-.56-.06-.83-.17l-3.86-1.7c-1.06-.47-1.53-1.71-1.06-2.77s1.71-1.54,2.77-1.06l3.82,1.68c1.06.46,1.55,1.7,1.09,2.76-.34.79-1.12,1.26-1.92,1.26Z" style="fill:#36a9e1;"/></g><g><path d="m98.71,150.16c-4.26-4.95-9.57-7.41-12.87-5.61l-20.54-23.64c-1.15-1.34-3.17-1.49-4.5-.34l-.95.82-1.94-2.25c-2.67-3.1-7.34-3.45-10.44-.78-3.1,2.67-3.45,7.34-.78,10.44l1.94,2.25-1.03.89c-1.34,1.15-1.49,3.17-.34,4.5l20.57,23.68.03-.02c-2.54,2.93-1.01,8.65,3.36,13.73l27.49-23.67h0Z" style="fill:#e6332a;"/><path d="m129.2,97.45l-44.68,38.54-14.02-16.28,44.68-38.54c.67-.58,1.68-.5,2.25.17l11.94,13.86c.58.67.5,1.68-.17,2.25Z" style="fill:#f9b233;"/><path d="m14.57,196.14l44.86-38.66-14.02-16.28L.55,179.86c-.67.58-.74,1.58-.17,2.25l11.94,13.86c.58.67,1.58.74,2.25.17Z" style="fill:#f9b233;"/><path d="m98.47,172.64c-.78-.9-1.93-1.22-3.02-1.04l-6.68-8.21-2.42,2.08,6.61,8.13c-.43,1.1-.29,2.38.53,3.33,1.18,1.37,3.26,1.53,4.63.35s1.53-3.26.35-4.63Z" style="fill:#e6332a;"/><path d="m103.35,183.34c-2.28,1.96-5.19,2.92-8.19,2.71-.88-.06-1.54-.83-1.48-1.71.06-.88.83-1.54,1.71-1.48,2.15.16,4.24-.53,5.87-1.94,1.64-1.42,2.64-3.39,2.79-5.55.06-.88.83-1.54,1.71-1.48.88.06,1.54.83,1.48,1.71-.22,3.02-1.6,5.76-3.9,7.74Z" style="fill:#36a9e1;"/><path d="m109.7,190.7c-3.56,3.07-8.11,4.57-12.8,4.22-.88-.06-1.54-.83-1.47-1.71.06-.88.83-1.54,1.71-1.47,3.84.28,7.56-.95,10.48-3.46,2.93-2.52,4.7-6.03,4.98-9.88.06-.88.83-1.54,1.71-1.47.88.06,1.54.83,1.47,1.71-.35,4.7-2.51,8.99-6.08,12.07Z" style="fill:#36a9e1;"/><path d="m116.03,198.05c-4.83,4.16-11,6.19-17.36,5.73-.88-.06-1.54-.83-1.47-1.71.06-.88.83-1.54,1.71-1.47,5.51.41,10.85-1.36,15.04-4.96,4.2-3.61,6.73-8.65,7.14-14.17.06-.88.83-1.54,1.71-1.47.88.07,1.54.83,1.47,1.71-.47,6.37-3.4,12.18-8.24,16.35Z" style="fill:#36a9e1;"/></g><path d="m512.74,412.1L314.71,20.49l-63.66,162.7c4.13,7.17,20.67,35.75,41.83,69.69,6.41,10.3,4.22,21.3,2.1,31.94-2.6,13.03-4.84,24.28,7.37,34.46,6.53,5.44,13.93,10.05,21.09,14.5,19.18,11.94,39.02,24.27,24.8,47.97-4.85,8.09-13.28,13.3-25.05,15.5-28.51,5.31-70.47-8.84-91.78-25.42-18.55-14.43-34.2-38.7-28.22-57.16,2.79-8.61,11.49-19.07,37.11-19.95,10.55-.36,17.39-3.46,20.33-9.2,7.3-14.23-8.29-43.08-14.91-53l-53.13-96.28-126.49,244.01h101.02v8.38H52.33L192.37,118.49l60.5,109.68c.9,1.32,26.24,39.64,15.22,61.16-4.43,8.66-13.69,13.29-27.5,13.76-11.46.4-25.87,3.17-29.43,14.17-4.09,12.64,7.06,33.71,25.4,47.97,19.88,15.46,58.82,28.68,85.1,23.79,9.31-1.74,15.84-5.63,19.4-11.58,9.53-15.89-1-23.46-22.04-36.55-7.4-4.6-15.06-9.36-22.03-15.18-16.03-13.37-12.95-28.86-10.23-42.54,1.89-9.46,3.66-18.39-.99-25.87-24.47-39.27-42.81-71.39-42.99-71.71l-.99-1.74L313.74,0l208.59,412.11h-9.58Z" style="fill:#312783;"/><g><path d="m53.05,467.01c0-31.07,25.94-56.41,57.01-56.41,16.59,0,30.17,6.34,40.12,15.99l-12.07,12.07c-6.94-7.54-16.59-12.07-28.06-12.07-22.32,0-38.92,18.1-38.92,40.43s16.59,40.42,38.92,40.42c16.59,0,30.17-10.26,35.9-24.74h-35.9v-15.68h56.71c0,30.77-25.94,56.41-56.71,56.41-33.48,0-57.01-22.93-57.01-56.41Z" style="fill:#2d2e83;"/><path d="m182.88,412.11h17.8v94.12h47.06v15.69h-64.86v-109.81Z" style="fill:#2d2e83;"/><path d="m262.34,412.11h17.8v109.81h-17.8v-109.81Z" style="fill:#2d2e83;"/><path d="m303.2,412.11h12.07l43.74,43.74,44.05-43.74h11.76v109.81h-17.5v-80.85l-38.31,36.8-38.31-36.8v80.85h-17.5v-109.81Z" style="fill:#2d2e83;"/><path d="m435.74,506.23h62.75c9.35,0,15.69-6.34,15.69-15.69s-6.33-15.69-15.69-15.69h-33.18c-18.71,0-31.37-13.27-31.37-31.37,0-16.59,12.67-31.37,31.37-31.37h57.02v15.69h-55.21c-9.35,0-15.69,6.34-15.69,15.69s6.34,15.69,15.69,15.69h33.19c18.7,0,31.37,13.27,31.37,31.37,0,16.29-12.67,31.37-31.37,31.37h-64.56v-15.69Z" style="fill:#2d2e83;"/></g><polygon points="203.3 545.36 54.45 545.36 54.45 553.74 203.33 553.74 203.3 545.36" style="fill:#f9b233;"/><rect x="222.57" y="545.36" width="22.22" height="8.38" style="fill:#f9b233;"/><g><path d="m122.1,647.9h-23.88l-5.8-13.08c-2.13-4.79-4.04-8.29-5.74-10.5-1.7-2.21-3.36-3.63-4.97-4.25-1.61-.62-3.69-.93-6.25-.93h-2.5v28.77h-22.23v-73.7h37.81c6.1,0,11.1,1.24,15,3.72s6.71,5.49,8.43,9.04c1.72,3.55,2.58,6.91,2.58,10.1,0,3.72-.72,6.87-2.15,9.44-1.44,2.57-2.95,4.44-4.55,5.61s-3.39,2.29-5.37,3.35c2.38,1.38,4.33,3.02,5.88,4.92,1.54,1.9,3.64,5.73,6.3,11.51l7.44,16.01Zm-30.2-50.41c0-3.4-1.12-5.78-3.35-7.13s-5.87-2.02-10.9-2.02h-4.68v17.76h4.79c5.42,0,9.14-.59,11.14-1.78,2-1.19,3-3.46,3-6.83Z" style="fill:#e94e1b;"/><path d="m203.33,642.69c-1.6.6-2.96,1.1-4.09,1.49s-2.23.74-3.27,1.06c-1.04.32-2.56.73-4.54,1.22-3.37.78-6.73,1.37-10.07,1.78-3.35.41-6.89.61-10.61.61-7.48,0-14.39-1.37-20.74-4.09-6.34-2.73-11.42-6.97-15.23-12.71-3.81-5.74-5.72-12.8-5.72-21.16,0-5.39.98-10.68,2.95-15.87,1.96-5.19,4.97-9.35,9.01-12.47,3.33-2.59,6.71-4.56,10.13-5.93,3.42-1.37,6.76-2.28,10.02-2.74,3.26-.46,6.86-.69,10.79-.69,6.49,0,11.84.49,16.06,1.46,4.22.98,8.84,2.26,13.88,3.86v17.44c-3.33-1.95-6.86-3.58-10.58-4.89s-8.36-1.97-13.93-1.97c-6.42,0-11.55,1.21-15.39,3.64-3.85,2.43-6.52,5.33-8.03,8.7-1.51,3.37-2.26,6.63-2.26,9.78,0,3.72.87,7.15,2.61,10.29,1.74,3.13,4.36,5.65,7.87,7.55,3.51,1.89,7.75,2.84,12.71,2.84,2.83,0,5.85-.37,9.04-1.12v-8.67h-10v-14.84h29.41v35.41Z" style="fill:#e94e1b;"/><path d="m244.8,647.9h-22.23v-73.7h22.23v73.7Z" style="fill:#e94e1b;"/></g></svg>