<?xml version="1.0" encoding="utf-8"?>
<!-- Generator: Adobe Illustrator 27.2.0, SVG Export Plug-In . SVG Version: 6.00 Build 0)  -->
<svg version="1.1" id="Calque_1" xmlns="http://www.w3.org/2000/svg" xmlns:xlink="http://www.w3.org/1999/xlink" x="0px" y="0px"
	 viewBox="0 0 582.3 561.6" style="enable-background:new 0 0 582.3 561.6;" xml:space="preserve">
<style type="text/css">
	.st0{fill:#2B317F;}
	.st1{fill:#37A7DF;}
	.st2{fill:#E5342A;}
	.st3{fill:#F8B132;}
	.st4{fill:#2E2C7D;}
</style>
<path class="st0" d="M226.2,319.7c6,22.4,23,40.7,44.6,48.4c14.4,4.5,35.8,12.4,47.5-0.7c3.2-4.5,3.4-10.7,2.4-16.4
	c1.9,5.4,2.3,11.9-0.7,17.5c-11.7,15.7-35.1,8.2-50.7,3.5C247.1,363.8,228.8,343.5,226.2,319.7L226.2,319.7z"/>
<path class="st0" d="M302.5,340.4c2.7,5.9,3,14.9-4.3,17.8c-6.9,2.6-13.7,0.7-19.8-1.2c-11.8-4.5-24-11.8-29.7-23.5
	c8.1,9.5,19.6,15.3,31.1,19.6C292.4,357.7,305.5,358.2,302.5,340.4L302.5,340.4z"/>
<g>
	<g>
		<path class="st1" d="M136.8,95c-1,0-1.8-0.7-2-1.6c-0.2-1.1,0.5-2.2,1.6-2.5c1.4-0.3,2.8-0.6,4.1-0.9c1.1-0.2,2.2,0.5,2.5,1.7
			c0.2,1.1-0.5,2.2-1.7,2.5c-1.4,0.3-2.7,0.5-4,0.8C137.1,95,136.9,95,136.8,95z"/>
	</g>
	<g>
		<path class="st1" d="M244,101.7c-0.2,0-0.4,0-0.6-0.1c-2.8-0.8-5.6-1.5-8.4-2.2c-1.1-0.3-1.8-1.4-1.5-2.5c0.3-1.1,1.4-1.8,2.5-1.5
			c2.8,0.7,5.6,1.4,8.5,2.2c1.1,0.3,1.8,1.5,1.5,2.6C245.7,101.1,244.9,101.7,244,101.7z M218.6,95.8c-0.1,0-0.3,0-0.4,0
			c-2.9-0.5-5.7-1-8.5-1.5c-1.1-0.2-1.9-1.3-1.7-2.4c0.2-1.1,1.3-1.9,2.4-1.7c2.9,0.4,5.7,0.9,8.6,1.5c1.1,0.2,1.9,1.3,1.7,2.4
			C220.5,95.1,219.6,95.8,218.6,95.8z M192.8,92.2c-0.1,0-0.1,0-0.2,0c-2.9-0.3-5.8-0.5-8.6-0.6c-1.2-0.1-2-1-2-2.2
			c0.1-1.2,1-2.1,2.2-2c2.9,0.1,5.8,0.4,8.7,0.6c1.2,0.1,2,1.1,1.9,2.3C194.8,91.3,193.9,92.2,192.8,92.2z M158.1,91.8
			c-1.1,0-2-0.8-2.1-1.9c-0.1-1.2,0.8-2.2,1.9-2.3c2.9-0.2,5.8-0.4,8.8-0.5c1.1-0.1,2.1,0.9,2.2,2c0,1.2-0.9,2.1-2,2.2
			c-2.9,0.1-5.8,0.3-8.6,0.5C158.2,91.8,158.1,91.8,158.1,91.8z"/>
	</g>
	<g>
		<path class="st1" d="M264.7,108.1c-0.2,0-0.4,0-0.7-0.1l-4-1.3c-1.1-0.4-1.7-1.5-1.3-2.6c0.4-1.1,1.6-1.7,2.6-1.3l4,1.3
			c1.1,0.4,1.7,1.6,1.3,2.7C266.4,107.5,265.5,108.1,264.7,108.1z"/>
	</g>
</g>
<g>
	<g>
		<path class="st1" d="M57.5,178.6c-0.1,0-0.2,0-0.3,0c-1.1-0.2-2-1.2-1.8-2.4c0.2-1.4,0.4-2.8,0.6-4.2c0.2-1.1,1.3-1.9,2.4-1.7
			c1.1,0.2,1.9,1.3,1.7,2.4c-0.2,1.3-0.4,2.7-0.6,4C59.4,177.9,58.5,178.6,57.5,178.6z"/>
	</g>
	<path class="st1" d="M122.3,358.4c-0.6,0-1.3-0.3-1.7-0.8c-1.7-2.2-3.3-4.5-4.9-6.7c-0.7-0.9-0.5-2.2,0.5-2.9
		c0.9-0.7,2.2-0.5,2.9,0.5c1.6,2.2,3.2,4.4,4.9,6.6c0.7,0.9,0.5,2.2-0.4,2.9C123.2,358.3,122.8,358.4,122.3,358.4z"/>
	<path class="st1" d="M107.9,338.2c-0.7,0-1.3-0.3-1.7-0.9c-1.6-2.3-3.1-4.6-4.6-6.9c-0.6-1-0.3-2.3,0.6-2.9c1-0.6,2.3-0.4,2.9,0.6
		c1.5,2.3,3,4.6,4.5,6.9c0.6,1,0.4,2.3-0.6,2.9C108.7,338.1,108.3,338.2,107.9,338.2z"/>
	<path class="st1" d="M84.3,298c-0.8,0-1.5-0.4-1.9-1.2c-1.3-2.5-2.5-5-3.7-7.5c-0.5-1,0-2.3,1-2.8c1-0.5,2.3-0.1,2.8,1
		c1.2,2.5,2.4,4.9,3.6,7.4c0.5,1,0.1,2.3-0.9,2.8C84.9,297.9,84.6,298,84.3,298z"/>
	<path class="st1" d="M74,275.4c-0.8,0-1.6-0.5-1.9-1.3c-1.1-2.6-2.1-5.2-3.1-7.8c-0.4-1.1,0.1-2.3,1.2-2.7c1.1-0.4,2.3,0.1,2.7,1.2
		c1,2.5,2,5.1,3,7.6c0.4,1.1-0.1,2.3-1.1,2.7C74.5,275.4,74.2,275.4,74,275.4z"/>
	<path class="st1" d="M65.6,252.1c-0.9,0-1.7-0.6-2-1.5c-0.8-2.7-1.6-5.4-2.3-8c-0.3-1.1,0.4-2.3,1.5-2.6c1.1-0.3,2.3,0.4,2.6,1.5
		c0.7,2.6,1.5,5.2,2.3,7.9c0.3,1.1-0.3,2.3-1.4,2.6C66,252.1,65.8,252.1,65.6,252.1z"/>
	<path class="st1" d="M59.5,228c-1,0-1.9-0.7-2.1-1.7c-0.5-2.8-1-5.5-1.4-8.3c-0.2-1.1,0.6-2.2,1.8-2.4c1.1-0.2,2.2,0.6,2.4,1.8
		c0.4,2.7,0.8,5.4,1.4,8.1c0.2,1.1-0.5,2.2-1.7,2.5C59.8,228,59.6,228,59.5,228z"/>
	<path class="st1" d="M56.5,203.4c-1.1,0-2-0.9-2.1-2c-0.1-2.5-0.2-5-0.2-7.4l0-1c0-1.1,0.9-2.1,2.1-2.1c0,0,0,0,0,0
		c1.2,0,2.1,1,2.1,2.1l0,0.9c0,2.4,0.1,4.8,0.2,7.2c0.1,1.2-0.8,2.1-2,2.2C56.6,203.4,56.6,203.4,56.5,203.4z"/>
	<g>
		<path class="st1" d="M135.2,374.8c-0.6,0-1.2-0.3-1.6-0.8l-2.7-3.3c-0.7-0.9-0.6-2.2,0.3-2.9c0.9-0.7,2.2-0.6,2.9,0.3l2.6,3.2
			c0.7,0.9,0.6,2.2-0.3,2.9C136.2,374.6,135.7,374.8,135.2,374.8z"/>
	</g>
</g>
<g>
	<path class="st1" d="M426.5,201.8c-0.5,0-1-0.2-1.3-0.5l-3.2-2.7c-0.9-0.7-1-2.1-0.3-2.9c0.7-0.9,2.1-1,2.9-0.3l3.2,2.7
		c0.9,0.7,1,2.1,0.3,2.9C427.7,201.5,427.1,201.8,426.5,201.8z"/>
</g>
<path class="st1" d="M459.9,561.6C459.9,561.6,459.9,561.6,459.9,561.6c-2.8,0-5.6-0.2-8.4-0.3c-1.2-0.1-2-1.1-2-2.2
	c0.1-1.1,1-2.1,2.2-2c2.8,0.2,5.5,0.3,8.2,0.3c1.2,0,2.1,1,2.1,2.1C462,560.7,461.1,561.6,459.9,561.6z"/>
<path class="st1" d="M476.4,561.2c-1.1,0-2-0.8-2.1-2c-0.1-1.2,0.8-2.2,1.9-2.2c2.8-0.2,5.5-0.4,8.1-0.7c1.1-0.2,2.2,0.7,2.3,1.8
	c0.1,1.1-0.7,2.2-1.8,2.3c-2.7,0.3-5.5,0.6-8.3,0.8C476.5,561.2,476.5,561.2,476.4,561.2z"/>
<path class="st1" d="M435.2,559.7c-0.1,0-0.2,0-0.3,0c-2.7-0.3-5.5-0.7-8.2-1.2c-1.1-0.2-1.9-1.3-1.7-2.4c0.2-1.1,1.3-1.9,2.4-1.7
	c2.7,0.4,5.4,0.8,8.1,1.1c1.1,0.1,2,1.2,1.8,2.3C437.2,559,436.3,559.7,435.2,559.7z"/>
<path class="st1" d="M501,557.7c-1,0-1.8-0.7-2-1.6c-0.3-1.1,0.4-2.2,1.6-2.5c2.7-0.6,5.3-1.3,7.9-2.1c1.1-0.3,2.3,0.3,2.6,1.4
	c0.3,1.1-0.3,2.3-1.4,2.6c-2.7,0.8-5.4,1.5-8.1,2.1C501.3,557.6,501.1,557.7,501,557.7z"/>
<path class="st1" d="M410.8,555.6c-0.1,0-0.3,0-0.4,0c-2.7-0.6-5.4-1.2-8.1-1.9c-1.1-0.3-1.8-1.4-1.5-2.5c0.3-1.1,1.4-1.8,2.5-1.5
	c2.7,0.7,5.4,1.3,8,1.8c1.1,0.2,1.9,1.4,1.6,2.5C412.6,554.9,411.8,555.6,410.8,555.6z"/>
<path class="st1" d="M524.5,549.8c-0.8,0-1.6-0.5-1.9-1.2c-0.5-1.1,0-2.3,1-2.8c2.5-1.1,4.9-2.3,7.2-3.6c1-0.6,2.3-0.2,2.8,0.8
	c0.6,1,0.2,2.3-0.8,2.8c-2.4,1.3-4.9,2.6-7.5,3.8C525,549.8,524.7,549.8,524.5,549.8z"/>
<path class="st1" d="M386.8,549.4c-0.2,0-0.4,0-0.6-0.1c-2.6-0.8-5.3-1.6-7.9-2.4c-1.1-0.3-1.7-1.5-1.4-2.6c0.4-1.1,1.5-1.7,2.6-1.4
	c2.6,0.8,5.3,1.6,7.9,2.4c1.1,0.3,1.7,1.5,1.4,2.6C388.5,548.8,387.7,549.4,386.8,549.4z"/>
<path class="st1" d="M363.2,541.6c-0.2,0-0.5,0-0.7-0.1c-2.6-0.9-5.2-1.9-7.8-2.9c-1.1-0.4-1.6-1.6-1.2-2.7c0.4-1.1,1.6-1.6,2.7-1.2
	c2.6,1,5.1,2,7.7,2.9c1.1,0.4,1.6,1.6,1.2,2.7C364.9,541.1,364.1,541.6,363.2,541.6z"/>
<path class="st1" d="M340,532.4c-0.2,0-0.5-0.1-0.7-0.2c-2.5-1-5.1-2.1-7.6-3.2c-1.1-0.5-1.5-1.7-1.1-2.8c0.5-1.1,1.7-1.5,2.8-1.1
	c2.5,1.1,5.1,2.2,7.6,3.2c1.1,0.4,1.6,1.7,1.1,2.7C341.6,531.9,340.8,532.4,340,532.4z"/>
<path class="st1" d="M545.5,536.9c-0.6,0-1.2-0.3-1.6-0.8c-0.7-0.9-0.6-2.2,0.3-2.9c2.1-1.7,4.1-3.5,6-5.3c0.8-0.8,2.2-0.8,3,0
	c0.8,0.8,0.8,2.2,0,3c-2,2-4.2,3.8-6.3,5.6C546.5,536.8,546,536.9,545.5,536.9z"/>
<path class="st1" d="M562.5,518.9c-0.4,0-0.8-0.1-1.2-0.4c-0.9-0.7-1.2-2-0.5-2.9c1.6-2.2,3-4.5,4.3-6.8c0.6-1,1.8-1.3,2.9-0.8
	c1,0.6,1.3,1.9,0.8,2.9c-1.4,2.4-2.9,4.8-4.6,7.1C563.8,518.6,563.1,518.9,562.5,518.9z"/>
<path class="st1" d="M573.9,497c-0.2,0-0.5,0-0.7-0.1c-1.1-0.4-1.6-1.6-1.3-2.7c0.9-2.5,1.7-5.1,2.4-7.7c0.3-1.1,1.5-1.8,2.6-1.5
	c1.1,0.3,1.8,1.5,1.5,2.6c-0.7,2.7-1.6,5.4-2.5,8C575.5,496.4,574.7,497,573.9,497z"/>
<path class="st1" d="M579.5,472.9c-0.1,0-0.2,0-0.3,0c-1.1-0.1-2-1.2-1.8-2.3c0.3-2.7,0.6-5.4,0.7-8.1c0.1-1.2,1.1-2,2.2-2
	c1.2,0.1,2,1.1,2,2.2c-0.2,2.8-0.4,5.6-0.7,8.4C581.4,472.1,580.5,472.9,579.5,472.9z"/>
<path class="st1" d="M580.2,448.1c-1.1,0-2-0.9-2.1-2c-0.2-2.7-0.4-5.4-0.7-8.1c-0.1-1.1,0.7-2.2,1.9-2.3c1.1-0.2,2.2,0.7,2.3,1.9
	c0.3,2.8,0.5,5.6,0.7,8.3c0.1,1.2-0.8,2.1-2,2.2C580.3,448.1,580.2,448.1,580.2,448.1z"/>
<path class="st1" d="M577,423.6c-1,0-1.9-0.7-2-1.7c-0.5-2.6-1.1-5.3-1.7-8c-0.3-1.1,0.4-2.3,1.6-2.5c1.1-0.3,2.3,0.4,2.5,1.6
	c0.7,2.7,1.2,5.5,1.8,8.2c0.2,1.1-0.5,2.2-1.6,2.5C577.3,423.6,577.2,423.6,577,423.6z"/>
<path class="st1" d="M570.9,399.6c-0.9,0-1.7-0.6-2-1.5c-0.8-2.6-1.7-5.2-2.6-7.8c-0.4-1.1,0.2-2.3,1.3-2.7c1.1-0.4,2.3,0.2,2.7,1.3
	c0.9,2.6,1.8,5.3,2.6,7.9c0.3,1.1-0.3,2.3-1.4,2.6C571.3,399.5,571.1,399.6,570.9,399.6z"/>
<path class="st1" d="M562.4,376.3c-0.8,0-1.6-0.5-1.9-1.3c-1-2.5-2.1-5-3.2-7.5c-0.5-1.1,0-2.3,1.1-2.8c1.1-0.5,2.3,0,2.8,1.1
	c1.1,2.6,2.2,5.1,3.3,7.6c0.4,1.1-0.1,2.3-1.1,2.7C562.9,376.2,562.6,376.3,562.4,376.3z"/>
<path class="st1" d="M552,353.8c-0.8,0-1.5-0.4-1.9-1.1c-1.2-2.4-2.5-4.9-3.8-7.3c-0.5-1-0.2-2.3,0.9-2.8c1-0.5,2.3-0.2,2.8,0.9
	c1.3,2.5,2.6,4.9,3.9,7.4c0.5,1,0.1,2.3-0.9,2.8C552.6,353.7,552.3,353.8,552,353.8z"/>
<path class="st1" d="M540,332.1c-0.7,0-1.4-0.4-1.8-1c-1.4-2.3-2.8-4.7-4.3-7c-0.6-1-0.3-2.3,0.7-2.9c1-0.6,2.3-0.3,2.9,0.7
	c1.5,2.4,2.9,4.7,4.3,7.1c0.6,1,0.3,2.3-0.7,2.9C540.7,332,540.4,332.1,540,332.1z"/>
<path class="st1" d="M526.7,311.1c-0.7,0-1.3-0.3-1.7-0.9c-1.5-2.3-3.1-4.5-4.7-6.8c-0.7-0.9-0.4-2.3,0.5-2.9c1-0.7,2.2-0.4,2.9,0.5
	c1.6,2.3,3.2,4.6,4.7,6.8c0.7,1,0.4,2.3-0.6,2.9C527.5,311,527.1,311.1,526.7,311.1z"/>
<path class="st1" d="M512.2,291c-0.6,0-1.3-0.3-1.7-0.8c-1.6-2.2-3.3-4.3-5-6.5c-0.7-0.9-0.6-2.2,0.4-2.9c0.9-0.7,2.2-0.6,2.9,0.4
	c1.7,2.2,3.4,4.4,5.1,6.6c0.7,0.9,0.5,2.2-0.4,2.9C513.1,290.8,512.7,291,512.2,291z"/>
<path class="st1" d="M496.8,271.6c-0.6,0-1.2-0.3-1.6-0.7c-1.8-2.1-3.5-4.2-5.3-6.3c-0.8-0.9-0.7-2.2,0.2-3c0.9-0.8,2.2-0.7,3,0.2
	c1.8,2.1,3.6,4.2,5.4,6.3c0.7,0.9,0.6,2.2-0.3,3C497.7,271.4,497.3,271.6,496.8,271.6z"/>
<path class="st1" d="M480.4,253c-0.6,0-1.1-0.2-1.5-0.7c-1.8-2-3.7-4-5.6-6c-0.8-0.8-0.8-2.2,0.1-3c0.8-0.8,2.2-0.8,3,0.1
	c1.9,2,3.8,4,5.7,6.1c0.8,0.9,0.7,2.2-0.1,3C481.4,252.8,480.9,253,480.4,253z"/>
<path class="st1" d="M463.2,235.1c-0.5,0-1.1-0.2-1.5-0.6c-1.9-1.9-3.9-3.8-5.9-5.8c-0.8-0.8-0.9-2.1-0.1-3c0.8-0.8,2.1-0.9,3-0.1
	c2,1.9,4,3.9,5.9,5.8c0.8,0.8,0.8,2.1,0,3C464.3,234.9,463.7,235.1,463.2,235.1z"/>
<path class="st1" d="M445.2,218.1c-0.5,0-1-0.2-1.4-0.5c-2-1.8-4.1-3.7-6.1-5.5c-0.9-0.8-0.9-2.1-0.2-3c0.8-0.9,2.1-1,3-0.2
	c2.1,1.8,4.1,3.7,6.2,5.5c0.9,0.8,0.9,2.1,0.1,3C446.3,217.8,445.8,218.1,445.2,218.1z"/>
<g>
	<path class="st2" d="M98.7,150.2c-4.3-5-9.6-7.4-12.9-5.6l-20.5-23.6c-1.1-1.3-3.2-1.5-4.5-0.3l-1,0.8l-1.9-2.3
		c-2.7-3.1-7.3-3.4-10.4-0.8c-3.1,2.7-3.4,7.3-0.8,10.4l1.9,2.3l-1,0.9c-1.3,1.2-1.5,3.2-0.3,4.5l20.6,23.7l0,0
		c-2.5,2.9-1,8.7,3.4,13.7L98.7,150.2L98.7,150.2z"/>
	<g>
		<path class="st3" d="M129.2,97.5L84.5,136l-14-16.3l44.7-38.5c0.7-0.6,1.7-0.5,2.3,0.2l11.9,13.9
			C129.9,95.9,129.9,96.9,129.2,97.5z"/>
	</g>
	<g>
		<path class="st3" d="M14.6,196.1l44.9-38.7l-14-16.3L0.6,179.9c-0.7,0.6-0.7,1.6-0.2,2.3L12.3,196
			C12.9,196.6,13.9,196.7,14.6,196.1z"/>
	</g>
	<path class="st2" d="M98.5,172.6c-0.8-0.9-1.9-1.2-3-1l-6.7-8.2l-2.4,2.1l6.6,8.1c-0.4,1.1-0.3,2.4,0.5,3.3
		c1.2,1.4,3.3,1.5,4.6,0.3S99.7,174,98.5,172.6z"/>
	<g>
		<path class="st1" d="M103.4,183.3c-2.3,2-5.2,2.9-8.2,2.7c-0.9-0.1-1.5-0.8-1.5-1.7c0.1-0.9,0.8-1.5,1.7-1.5
			c2.2,0.2,4.2-0.5,5.9-1.9c1.6-1.4,2.6-3.4,2.8-5.6c0.1-0.9,0.8-1.5,1.7-1.5c0.9,0.1,1.5,0.8,1.5,1.7
			C107,178.6,105.6,181.4,103.4,183.3z"/>
	</g>
	<g>
		<path class="st1" d="M109.7,190.7c-3.6,3.1-8.1,4.6-12.8,4.2c-0.9-0.1-1.5-0.8-1.5-1.7c0.1-0.9,0.8-1.5,1.7-1.5
			c3.8,0.3,7.6-0.9,10.5-3.5c2.9-2.5,4.7-6,5-9.9c0.1-0.9,0.8-1.5,1.7-1.5c0.9,0.1,1.5,0.8,1.5,1.7
			C115.4,183.3,113.3,187.6,109.7,190.7z"/>
	</g>
	<g>
		<path class="st1" d="M116,198c-4.8,4.2-11,6.2-17.4,5.7c-0.9-0.1-1.5-0.8-1.5-1.7c0.1-0.9,0.8-1.5,1.7-1.5c5.5,0.4,10.9-1.4,15-5
			c4.2-3.6,6.7-8.6,7.1-14.2c0.1-0.9,0.8-1.5,1.7-1.5c0.9,0.1,1.5,0.8,1.5,1.7C123.8,188.1,120.9,193.9,116,198z"/>
	</g>
</g>
<path class="st2" d="M317.9,532.4H279l-9.5-21.3c-3.5-7.8-6.6-13.5-9.4-17.1c-2.8-3.6-5.5-5.9-8.1-6.9c-2.6-1-6-1.5-10.2-1.5h-4.1
	v46.9h-36.3V412.2h61.7c9.9,0,18.1,2,24.5,6.1c6.4,4,10.9,9,13.8,14.7c2.8,5.8,4.2,11.3,4.2,16.5c0,6.1-1.2,11.2-3.5,15.4
	c-2.3,4.2-4.8,7.2-7.4,9.1c-2.6,1.9-5.5,3.7-8.8,5.5c3.9,2.3,7.1,4.9,9.6,8c2.5,3.1,5.9,9.4,10.3,18.8L317.9,532.4z M268.6,450.2
	c0-5.6-1.8-9.4-5.5-11.6c-3.6-2.2-9.6-3.3-17.8-3.3h-7.6v29h7.8c8.8,0,14.9-1,18.2-2.9C267,459.4,268.6,455.7,268.6,450.2z"/>
<g>
	<path class="st3" d="M148.2,533.8c-7.9,0-14.3-6.6-14.3-14.5c0-4.2,1.6-7.7,4.1-10.2l3.1,3.1c-1.9,1.8-3.1,4.2-3.1,7.1
		c0,5.7,4.6,9.9,10.3,9.9c5.7,0,10.3-4.2,10.3-9.9c0-4.2-2.6-7.7-6.3-9.1v9.1h-4v-14.4c7.8,0,14.3,6.6,14.3,14.4
		C162.6,527.8,156.8,533.8,148.2,533.8z"/>
	<path class="st3" d="M134.3,500.8v-4.5h23.9v-12h4v16.5H134.3z"/>
	<path class="st3" d="M134.3,480.6v-4.5h27.9v4.5H134.3z"/>
	<path class="st3" d="M134.3,470.2v-3.1l11.1-11.1l-11.1-11.2v-3h27.9v4.4h-20.5l9.4,9.7l-9.4,9.7h20.5v4.4H134.3z"/>
	<path class="st3" d="M158.2,436.5v-15.9c0-2.4-1.6-4-4-4s-4,1.6-4,4v8.4c0,4.8-3.4,8-8,8c-4.2,0-8-3.2-8-8v-14.5h4v14
		c0,2.4,1.6,4,4,4c2.4,0,4-1.6,4-4v-8.4c0-4.8,3.4-8,8-8c4.1,0,8,3.2,8,8v16.4H158.2z"/>
</g>
<path class="st1" d="M194.9,437.6c-0.5,0-1-0.2-1.4-0.5c-2.1-1.9-2.3-2-4.4-3.9c-0.9-0.8-0.9-2.1-0.1-3c0.8-0.9,2.1-0.9,3-0.1
	c2,1.9,2.3,2,4.4,3.8c0.9,0.8,1,2.1,0.2,3C196.1,437.4,195.5,437.6,194.9,437.6z"/>
<path class="st1" d="M178.3,422.4c-0.5,0-1-0.2-1.5-0.6c-2-1.9-4-3.9-6-5.9c-0.8-0.8-0.8-2.1,0-3c0.8-0.8,2.1-0.8,3,0
	c2,1.9,4,3.9,6,5.8c0.8,0.8,0.9,2.1,0.1,3C179.4,422.2,178.9,422.4,178.3,422.4z"/>
<path class="st1" d="M160.6,404.6c-0.6,0-1.1-0.2-1.5-0.7c-1.9-2-3.8-4.1-5.7-6.1c-0.8-0.8-0.7-2.2,0.1-3c0.9-0.8,2.2-0.7,3,0.1
	c1.9,2,3.8,4.1,5.7,6.1c0.8,0.8,0.8,2.2-0.1,3C161.7,404.4,161.2,404.6,160.6,404.6z"/>
<path class="st2" d="M450.4,523.7c-2.6,1-4.8,1.8-6.7,2.4c-1.8,0.6-3.6,1.2-5.3,1.7c-1.7,0.5-4.2,1.2-7.4,2
	c-5.5,1.3-11,2.2-16.4,2.9c-5.5,0.7-11.2,1-17.3,1c-12.2,0-23.5-2.2-33.8-6.7s-18.6-11.4-24.8-20.7c-6.2-9.4-9.3-20.9-9.3-34.5
	c0-8.8,1.6-17.4,4.8-25.9c3.2-8.5,8.1-15.3,14.7-20.3c5.4-4.2,10.9-7.4,16.5-9.7c5.6-2.2,11-3.7,16.3-4.5s11.2-1.1,17.6-1.1
	c10.6,0,19.3,0.8,26.2,2.4c6.9,1.6,14.4,3.7,22.6,6.3v28.4c-5.4-3.2-11.2-5.8-17.3-8s-13.6-3.2-22.7-3.2c-10.5,0-18.8,2-25.1,5.9
	c-6.3,4-10.6,8.7-13.1,14.2c-2.5,5.5-3.7,10.8-3.7,16c0,6.1,1.4,11.7,4.2,16.8c2.8,5.1,7.1,9.2,12.8,12.3c5.7,3.1,12.6,4.6,20.7,4.6
	c4.6,0,9.5-0.6,14.7-1.8v-14.1h-16.3V466h48V523.7z"/>
<path class="st2" d="M518.5,532.2h-36.3V412.3h36.3V532.2z"/>
<path class="st4" d="M518.5,405.4L518.5,405.4L518.5,405.4L313.7,0l-71.9,183.9l1,1.7c0.2,0.3,18.5,32.4,43,71.7
	c4.7,7.5,2.9,16.4,1,25.9c-2.7,13.7-5.8,29.2,10.2,42.5c7,5.8,14.6,10.6,22,15.2c21,13.1,31.6,20.7,22,36.5
	c-3.6,5.9-10.1,9.8-19.4,11.6c-26.3,4.9-65.2-8.3-85.1-23.8c-18.3-14.3-29.5-35.3-25.4-48c3.6-11,18-13.8,29.4-14.2
	c13.8-0.5,23.1-5.1,27.5-13.8c11-21.5-14.3-59.8-15.2-61.2l-60.5-109.7l-140,270.1h109.9v-8.4H66.1l126.5-244l53.1,96.3
	c6.6,9.9,22.2,38.8,14.9,53c-2.9,5.7-9.8,8.8-20.3,9.2c-25.6,0.9-34.3,11.3-37.1,20c-6,18.5,9.7,42.7,28.2,57.2
	c21.3,16.6,63.3,30.7,91.8,25.4c11.8-2.2,20.2-7.4,25-15.5c14.2-23.7-5.6-36-24.8-48c-7.2-4.5-14.6-9.1-21.1-14.5
	c-12.2-10.2-10-21.4-7.4-34.5c2.1-10.6,4.3-21.6-2.1-31.9c-21.2-33.9-37.7-62.5-41.8-69.7l63.7-162.7l190,376.6l0,0h-22.4v8.4H514
	H518.5L518.5,405.4z"/>
</svg>
